<svg width="1440" height="1024" viewBox="0 0 1440 1024" fill="none" xmlns="http://www.w3.org/2000/svg">
<mask id="mask0_1_2" style="mask-type:alpha" maskUnits="userSpaceOnUse" x="399" y="129" width="765" height="765">
<circle cx="781.69" cy="511.588" r="347.91" stroke="#0764FF" stroke-width="68"/>
</mask>
<g mask="url(#mask0_1_2)">
<ellipse cx="804.5" cy="401" rx="369.5" ry="337" fill="#0549BA"/>
<ellipse cx="702.5" cy="407" rx="369.5" ry="294" fill="#0764FF"/>
</g>
<mask id="mask1_1_2" style="mask-type:alpha" maskUnits="userSpaceOnUse" x="515" y="83" width="739" height="740">
<circle cx="884.536" cy="453.286" r="369.463" fill="#00A7FF"/>
</mask>
<g mask="url(#mask1_1_2)">
<path d="M1022.1 646.368C1022.1 668.477 1106.39 660.206 1112.81 659.543C1113.1 659.513 1113.34 659.502 1113.63 659.499C1117.89 659.452 1152.67 658.686 1169.54 646.368C1187.52 633.235 1191.11 574.788 1191.11 543.266C1191.11 511.745 1187.52 454.612 1169.54 438.851C1151.56 423.09 1022.1 416.523 1022.1 438.851C1022.1 450.088 1031 496.751 1031 543.266C1031 589.18 1022.1 634.951 1022.1 646.368Z" fill="#053482"/>
</g>
<mask id="mask2_1_2" style="mask-type:alpha" maskUnits="userSpaceOnUse" x="413" y="56" width="740" height="740">
<path d="M1152.5 426C1152.5 630.049 987.085 795.463 783.036 795.463C578.988 795.463 413.573 630.049 413.573 426C413.573 221.951 578.988 56.5369 783.036 56.5369C987.085 56.5369 1152.5 221.951 1152.5 426Z" fill="#00A7FF"/>
</mask>
<g mask="url(#mask2_1_2)">
<path d="M1022.1 646.368C1022.1 668.477 1106.39 660.206 1112.81 659.543C1113.1 659.513 1113.34 659.502 1113.63 659.499C1117.89 659.452 1152.67 658.686 1169.54 646.368C1187.52 633.235 1191.11 574.788 1191.11 543.266C1191.11 511.745 1187.52 454.612 1169.54 438.851C1151.56 423.09 1022.1 416.523 1022.1 438.851C1022.1 449.422 1031 493.343 1031 537C1031 585.559 1022.1 634.265 1022.1 646.368Z" fill="#0549BA"/>
</g>
<path d="M542.587 439.695C542.587 417.587 458.303 425.858 451.876 426.521C451.591 426.55 451.346 426.561 451.059 426.565C446.802 426.612 412.015 427.378 395.152 439.695C377.173 452.829 373.577 511.276 373.577 542.798C373.577 574.319 377.173 631.452 395.152 647.213C413.132 662.974 542.587 669.541 542.587 647.213C542.587 636.435 528.5 592.069 528.5 547.5C528.5 499.733 542.587 451.586 542.587 439.695Z" fill="#0764FF"/>
<circle cx="885.656" cy="578.273" r="22.2726" fill="#053482"/>
<circle cx="783.465" cy="578.273" r="22.2726" fill="#053482"/>
<circle cx="681.273" cy="578.273" r="22.2726" fill="#053482"/>
<path d="M339.513 503.072C344.099 498.487 374.232 489.316 369.646 503.072C365.061 516.829 366.371 570.545 369.646 584.302C372.922 598.058 347.374 590.197 339.513 584.302C331.652 578.406 334.927 507.658 339.513 503.072Z" fill="#0764FF"/>
<path d="M1225.65 584.68C1221.07 589.266 1190.93 598.437 1195.52 584.68C1200.1 570.924 1198.79 517.207 1195.52 503.451C1192.24 489.694 1217.79 497.555 1225.65 503.451C1233.51 509.347 1230.24 580.095 1225.65 584.68Z" fill="#053482"/>
<path fill-rule="evenodd" clip-rule="evenodd" d="M1043.59 684C988.997 768.707 893.83 824.797 785.563 824.797C677.297 824.797 582.13 768.707 527.538 684L432.265 684C503.065 826.794 659.298 917.311 821.905 899.934C875.688 893.454 926.524 877.208 972.404 852.714C996.247 839.154 1100.29 869.221 1160.99 887.809C1175.51 892.004 1189.67 875.648 1180.17 861.366C1150.42 811.872 1105.69 730.782 1116.33 713.93C1122.16 704.202 1127.56 694.216 1132.52 684L1043.59 684Z" fill="#0764FF"/>
</svg>
